PathFileType	4	(X/Y/Z)	Walk6.trc
DataRate	CameraRate	NumFrames	NumMarkers	Units	OrigDataRate	OrigDataStartFrame	OrigNumFrames
200.000000	200.000000	4	58	mm	200.000000	256	597
Frame#	Times		LBHD		LACR1		RMT5		LElbowM		RTH2		RTB3		LWRU		RToe		RTB2		RMT1		C7		LCAR		RCAL		RCAR		LASI		RFA1		RLFC		RWRU		LLFC		LTH3		LTH4		RElbow		RElbowM		LPSI		LTH2		RPSI		LTB2		RASI		LCAL		LMMAL		LFHD		T10		LMT5		LToe		RBHD		LUA1		LMT1		RTH3		RLMAL		RBack		RMFC		LTB1		LTB3		LTH1		LMFC		RFHD		RTB1		LTB4		RUA1		RTH1		RTH4		RTB4		LLMAL		RWRR		LWRR		RACR1		LElbow		RMMAL
			X1	Y1	Z1	X2	Y2	Z2	X3	Y3	Z3	X4	Y4	Z4	X5	Y5	Z5	X6	Y6	Z6	X7	Y7	Z7	X8	Y8	Z8	X9	Y9	Z9	X10	Y10	Z10	X11	Y11	Z11	X12	Y12	Z12	X13	Y13	Z13	X14	Y14	Z14	X15	Y15	Z15	X16	Y16	Z16	X17	Y17	Z17	X18	Y18	Z18	X19	Y19	Z19	X20	Y20	Z20	X21	Y21	Z21	X22	Y22	Z22	X23	Y23	Z23	X24	Y24	Z24	X25	Y25	Z25	X26	Y26	Z26	X27	Y27	Z27	X28	Y28	Z28	X29	Y29	Z29	X30	Y30	Z30	X31	Y31	Z31	X32	Y32	Z32	X33	Y33	Z33	X34	Y34	Z34	X35	Y35	Z35	X36	Y36	Z36	X37	Y37	Z37	X38	Y38	Z38	X39	Y39	Z39	X40	Y40	Z40	X41	Y41	Z41	X42	Y42	Z42	X43	Y43	Z43	X44	Y44	Z44	X45	Y45	Z45	X46	Y46	Z46	X47	Y47	Z47	X48	Y48	Z48	X49	Y49	Z49	X50	Y50	Z50	X51	Y51	Z51	X52	Y52	Z52	X53	Y53	Z53	X54	Y54	Z54	X55	Y55	Z55	X56	Y56	Z56	X57	Y57	Z57	X58	Y58	Z58

256	1.28	-759.81	1601.8	-56.705	-727.41	1396.9	-159.72	-946.21	20.528	113.26	-881.54	1093.1	-274.4	-759.11	635.5	121.5	-937.37	185.15	22.782	-905.21	810.79	-272.61	-842.66	17.114	82.001	-906.05	262.77	101.6	-892.64	22.54	36.189	-811.69	1464.6	10.329	-842.87	773.29	-255.04	-1097.1	51.016	-0.57568	-625.78	795.91	281.97	-715.82	1012	-142.67	-737.69	914.39	302.06	-842.57	495.72	125.06	-700.39	801.1	265.84	-657.36	513.11	-131.52	-667.18	570.15	-144.72	-693.02	659.66	-163.72	-795.81	1066	310.5	-839.58	1064.2	235.26	-912.76	1025.1	-42.028	-640.51	680.48	-117.1	-921.64	1029.9	26.028	-555.81	321.49	-124.3	-752.58	973.47	169.43	-557.5	24.904	-56.48	-491.83	92.823	-26.903	-580.79	1603	-20.564	-897.91	1208.9	7.3246	-385.38	71.28	-119.51	-324.58	123.68	-66.9	-764.38	1597	79.731	-805.16	1211.5	-238.56	-357.92	87.177	-45.237	-834.93	543.19	131.94	-1042.9	80.822	63.317	-836.27	1351.8	164.81	-860.61	471.82	-1.6268	-565.81	414.34	-53.094	-519.12	234.88	-55.904	-720.89	748.45	-177.59	-656.42	486.59	-1.5791	-583.64	1601.9	54.125	-845.06	348.41	34.862	-543.32	324.48	-53.737	-732.56	1226.7	256.74	-808.63	761.2	177.78	-825.57	634.44	155.04	-892.88	261.2	28.599	-509.59	73.368	-107.17	-634.65	843.26	234.17	-840	818.48	-219.66	-705.13	1404.4	164.41	-926.36	1097.8	-202.3	-1008.3	75.201	-11.171
257	1.285	-754.32	1601.1	-57.505	-721.92	1396.1	-160.38	-946.26	20.464	113.21	-876.33	1092.3	-274.88	-755.01	634.53	121.17	-936.3	185.17	22.716	-900.29	810.11	-273	-842.67	17.11	81.991	-904.3	262.57	101.46	-892.66	22.516	36.206	-806.26	1463.9	9.6053	-838	772.51	-255.34	-1097	52.117	-0.46472	-620.57	795.27	281.62	-710.34	1011.2	-143.04	-732.42	913.79	301.52	-839.2	495.13	124.77	-695.13	800.49	265.38	-651.05	512.71	-131.14	-660.21	570.33	-144.39	-686.16	659.82	-163.76	-790.49	1065.5	309.81	-834.16	1063.7	234.54	-907.22	1024.4	-42.497	-634.08	680.77	-116.6	-916.19	1029.3	25.569	-551.28	320.28	-123.52	-747.17	972.74	169.03	-556.26	24.457	-56.059	-489.7	90.928	-26.209	-575.32	1602.4	-21.219	-892.43	1208.3	6.7899	-383.74	68.637	-119.13	-322.35	120.18	-66.256	-758.99	1596.4	78.93	-799.86	1210.7	-239.1	-355.79	83.862	-44.914	-831.46	542.66	131.7	-1042.6	81.598	63.407	-830.93	1351.3	164.15	-857.21	471.25	-1.8326	-560.91	413.11	-52.299	-515.73	233.29	-55.076	-714.15	748.46	-177.85	-650.69	486.28	-1.1403	-578.22	1601.3	53.467	-842.78	347.63	34.739	-539.13	323.07	-52.925	-727.24	1226.1	256.11	-805.21	762.82	178.23	-821.48	633.81	154.68	-891.21	260.9	28.447	-507.63	72.031	-106.6	-629.34	842.6	233.8	-835.04	817.75	-220.03	-699.74	1403.8	163.8	-921.14	1097.2	-202.77	-1008.1	75.682	-11.142
258	1.29	-748.82	1600.5	-58.322	-716.4	1395.3	-161.06	-946.31	20.399	113.13	-871.06	1091.6	-275.35	-750.83	633.59	120.81	-935.18	185.26	22.654	-895.26	809.43	-273.41	-842.69	17.101	81.975	-902.48	262.42	101.32	-892.66	22.532	36.219	-800.82	1463.3	8.8611	-833.02	771.73	-255.67	-1096.9	53.36	-0.35261	-615.43	794.66	281.27	-704.85	1010.4	-143.45	-727.21	913.22	300.96	-835.72	494.56	124.46	-689.94	799.91	264.89	-644.8	512.35	-130.77	-653.33	570.51	-143.97	-679.33	659.99	-163.68	-785.22	1064.9	309.08	-828.77	1063.1	233.79	-901.67	1023.8	-42.952	-627.59	681.05	-116.09	-910.72	1028.7	25.124	-546.78	319.12	-122.72	-741.69	972	168.59	-555.21	24.176	-55.67	-487.69	89.038	-25.533	-569.83	1601.8	-21.887	-886.94	1207.7	6.2508	-382.26	65.885	-118.77	-320.23	116.51	-65.608	-753.58	1595.8	78.112	-794.5	1209.9	-239.66	-353.79	80.423	-44.615	-827.87	542.14	131.44	-1042.2	82.473	63.499	-825.58	1350.7	163.48	-853.72	470.7	-2.0437	-556.06	411.91	-51.473	-512.43	231.72	-54.243	-707.38	748.51	-178	-645.06	485.98	-0.73519	-572.78	1600.7	52.794	-840.44	346.84	34.675	-535.02	321.7	-52.094	-721.93	1225.6	255.46	-801.92	764.11	178.64	-817.32	633.2	154.29	-889.47	260.66	28.295	-505.78	70.753	-106.05	-624.09	841.97	233.41	-829.98	817.02	-220.42	-694.33	1403.3	163.17	-915.85	1096.5	-203.24	-1007.9	76.262	-11.096
259	1.295	-743.29	1599.9	-59.154	-710.85	1394.5	-161.76	-946.37	20.333	113.03	-865.71	1090.9	-275.82	-746.55	632.7	120.43	-934	185.43	22.6	-890.13	808.73	-273.83	-842.72	17.084	81.952	-900.59	262.33	101.19	-892.65	22.589	36.232	-795.35	1462.6	8.0984	-827.94	770.96	-256.03	-1096.8	54.771	-0.23607	-610.36	794.08	280.91	-699.36	1009.7	-143.87	-722.07	912.68	300.37	-832.09	494	124.13	-684.81	799.36	264.38	-638.62	512.04	-130.41	-646.56	570.69	-143.48	-672.58	660.17	-163.48	-780.03	1064.4	308.32	-823.4	1062.6	232.99	-896.12	1023.3	-43.396	-621.06	681.29	-115.58	-905.24	1028.1	24.689	-542.28	318.02	-121.91	-736.15	971.28	168.11	-554.28	24.072	-55.31	-485.76	87.189	-24.881	-564.33	1601.3	-22.568	-881.44	1207.1	5.7066	-380.88	63.066	-118.41	-318.17	112.71	-64.95	-748.16	1595.3	77.279	-789.09	1209.2	-240.21	-351.88	76.916	-44.331	-824.12	541.64	131.16	-1041.8	83.465	63.598	-820.2	1350.3	162.78	-850.11	470.17	-2.2572	-551.27	410.76	-50.631	-509.2	230.2	-53.415	-700.61	748.58	-178.03	-639.56	485.7	-0.37876	-567.33	1600.2	52.109	-838.01	346.05	34.661	-530.96	320.38	-51.255	-716.64	1225.1	254.79	-798.72	765.03	178.98	-813.05	632.61	153.88	-887.66	260.48	28.147	-504	69.56	-105.53	-618.9	841.37	233.02	-824.81	816.27	-220.83	-688.9	1402.8	162.54	-910.48	1095.8	-203.72	-1007.7	76.962	-11.03
